<?xml version="1.0" encoding="utf-8"?>
<!-- Generator: Adobe Illustrator 17.0.0, SVG Export Plug-In . SVG Version: 6.00 Build 0)  -->
<!DOCTYPE svg PUBLIC "-//W3C//DTD SVG 1.1//EN" "http://www.w3.org/Graphics/SVG/1.1/DTD/svg11.dtd">
<svg version="1.1" id="Layer_1" xmlns="http://www.w3.org/2000/svg" xmlns:xlink="http://www.w3.org/1999/xlink" x="0px" y="0px"
	 width="16px" height="16px" viewBox="0 0 16 16" enable-background="new 0 0 16 16" xml:space="preserve">
<g id="corner">
	<polygon points="1,0 16,0 16,15 	"/>
</g>
<g id="do">
	<circle cx="8" cy="8" r="6.5"/>
</g>
<g id="vote">
	<polygon points="2,12 8,4 14,12 	"/>
</g>
<g id="comment">
	<polygon points="0.5,1 15.5,1 15.5,11 10.5,11 5.5,15 5.5,11 0.5,11 	"/>
</g>
<g id="tag">
	<polygon points="0.5,3 10.5,3 15.5,8 10.5,13 0.5,13 	"/>
</g>
<g id="Layer_1_1_">
	<g id="delete">
		<path fill="#010101" d="M10.233,8l3.35-3.349c0.617-0.616,0.617-1.616,0-2.233s-1.616-0.617-2.233,0L8,5.767L4.65,2.418
			c-0.617-0.617-1.617-0.617-2.233,0C1.8,3.035,1.8,4.034,2.417,4.651L5.767,8l-3.35,3.349c-0.617,0.617-0.617,1.616,0,2.233
			c0.308,0.308,0.713,0.463,1.117,0.463s0.808-0.154,1.117-0.463L8,10.233l3.35,3.349c0.308,0.308,0.713,0.463,1.117,0.463
			s0.808-0.154,1.117-0.463c0.617-0.617,0.617-1.616,0-2.233L10.233,8z"/>
	</g>
</g>
<g id="Layer_2">
	<g id="ascending">
		<polygon fill="#010101" points="8,4.222 15.547,11.778 0.453,11.778 		"/>
	</g>
</g>
<g id="Layer_3">
	<g id="ban">
		<path fill="#010101" d="M8,0.419C3.82,0.419,0.42,3.82,0.42,8s3.4,7.581,7.58,7.581c4.179,0,7.58-3.401,7.58-7.581
			S12.179,0.419,8,0.419z M13.053,8c0,0.934-0.272,1.799-0.716,2.55L5.449,3.663C6.2,3.219,7.065,2.946,8,2.946
			C10.786,2.946,13.053,5.213,13.053,8z M2.947,8c0-0.934,0.272-1.799,0.715-2.55l6.889,6.888C9.799,12.781,8.934,13.054,8,13.054
			C5.213,13.054,2.947,10.787,2.947,8z"/>
	</g>
</g>
<g id="Layer_4">
	<g id="descending">
		<polygon fill="#010101" points="0.453,4.222 15.547,4.222 8,11.778 		"/>
	</g>
</g>
<g id="Layer_5">
	<g id="edit">
		<path fill="#010101" d="M5.555,15.842H0.158v-5.398L10.445,0.158l5.397,5.397L5.555,15.842z M2.685,13.315h1.823l7.76-7.76
			l-1.823-1.823l-7.76,7.76C2.685,11.492,2.685,13.315,2.685,13.315z"/>
	</g>
</g>
<g id="Layer_6">
	<g id="approve">
		<path fill="#010101" d="M5.731,13.872c-0.008,0-0.015,0-0.023,0c-0.427-0.006-0.833-0.185-1.126-0.496L0.534,9.083
			C-0.064,8.449-0.035,7.45,0.599,6.851c0.636-0.598,1.636-0.568,2.233,0.065l2.933,3.11L13.2,2.59c0.617-0.617,1.616-0.617,2.233,0
			c0.617,0.616,0.617,1.616,0,2.233L6.848,13.41C6.552,13.706,6.15,13.872,5.731,13.872z"/>
	</g>
</g>
<g id="Layer_7">
	<g id="flag">
		<path fill="#010101" d="M12.181,5.894l2.737-5.475H1.082v1.264v9.687v2.948c0,0.698,0.566,1.264,1.264,1.264
			s1.264-0.565,1.264-1.264V11.37h11.309L12.181,5.894z M10.83,8.842H3.609V2.946h7.221L9.356,5.894L10.83,8.842z"/>
	</g>
</g>
<g id="Layer_8">
	
		<polygon fill="none" stroke="#000000" stroke-width="2.4" stroke-linecap="round" stroke-linejoin="round" stroke-miterlimit="10" points="
		6,14 10,10 14,10 14,2 2,2 2,10 6,10 	"/>
	<g id="Layer_8_1_">
		<path d="M6,15.2c-0.154,0-0.31-0.03-0.458-0.092C5.092,14.923,4.8,14.485,4.8,14v-2.8H2c-0.663,0-1.2-0.537-1.2-1.2V2
			c0-0.663,0.538-1.2,1.2-1.2h12c0.663,0,1.2,0.538,1.2,1.2v8c0,0.663-0.537,1.2-1.2,1.2h-3.503l-3.648,3.648
			C6.619,15.078,6.312,15.2,6,15.2z M3.2,8.8H6c0.663,0,1.2,0.537,1.2,1.2v1.103l1.951-1.951C9.377,8.927,9.682,8.8,10,8.8h2.8V3.2
			H3.2V8.8z"/>
	</g>
</g>
</svg>
