<?xml version="1.0" encoding="utf-8"?>
<!-- Generator: Adobe Illustrator 17.0.0, SVG Export Plug-In . SVG Version: 6.00 Build 0)  -->
<!DOCTYPE svg PUBLIC "-//W3C//DTD SVG 1.1//EN" "http://www.w3.org/Graphics/SVG/1.1/DTD/svg11.dtd">
<svg version="1.1" xmlns="http://www.w3.org/2000/svg" xmlns:xlink="http://www.w3.org/1999/xlink" x="0px" y="0px" width="16px"
	 height="16px" viewBox="0 0 16 16" enable-background="new 0 0 16 16" xml:space="preserve">
<g id="Layer_1">
	<g id="corner">
		<polygon points="1,0 16,0 16,15 		"/>
	</g>
	<g id="do">
		<circle cx="8" cy="8" r="6.5"/>
	</g>
	<g id="vote">
		<polygon points="2,12 8,4 14,12 		"/>
	</g>
	<g id="tag">
		<polygon points="0.5,3 10.5,3 15.5,8 10.5,13 0.5,13 		"/>
	</g>
</g>
<g id="Layer_2">
	<g id="comment">
		<polygon points="0.5,1 15.5,1 15.5,11 10.5,11 5.5,15 5.5,11 0.5,11 		"/>
	</g>
</g>
<g id="Layer_3">
	<path d="M10.212,11.94H0c0-1.41,2.286-2.553,5.106-2.553C7.925,9.388,10.212,10.531,10.212,11.94z M7.658,6.834
		c0-1.41-1.143-2.553-2.553-2.553S2.553,5.425,2.553,6.834c0,1.411,1.143,2.553,2.553,2.553S7.658,8.245,7.658,6.834z"/>
	<path d="M11.922,9.132c-1.015,0-1.941,0.187-2.656,0.493c0.874,0.375,1.43,0.929,1.43,1.55h5.311
		C16.007,10.047,14.177,9.132,11.922,9.132z M13.964,7.09c0-1.129-0.914-2.043-2.042-2.043c-1.129,0-2.043,0.914-2.043,2.043
		c0,1.128,0.914,2.042,2.043,2.042C13.05,9.132,13.964,8.218,13.964,7.09z"/>
</g>
</svg>
