<?xml version="1.0" encoding="utf-8"?>
<!-- Generator: Adobe Illustrator 17.0.0, SVG Export Plug-In . SVG Version: 6.00 Build 0)  -->
<!DOCTYPE svg PUBLIC "-//W3C//DTD SVG 1.1//EN" "http://www.w3.org/Graphics/SVG/1.1/DTD/svg11.dtd">
<svg version="1.1" xmlns="http://www.w3.org/2000/svg" xmlns:xlink="http://www.w3.org/1999/xlink" x="0px" y="0px" width="16px"
	 height="16px" viewBox="0 0 16 16" enable-background="new 0 0 16 16" xml:space="preserve">
<g id="Layer_1">
	<g id="corner">
		<polygon points="1,0 16,0 16,15 		"/>
	</g>
	<g id="do">
		<circle cx="8" cy="8" r="6.5"/>
	</g>
	<g id="vote">
		<polygon points="2,12 8,4 14,12 		"/>
	</g>
	<g id="comment">
		<polygon points="0.5,1 15.5,1 15.5,11 10.5,11 5.5,15 5.5,11 0.5,11 		"/>
	</g>
	<g id="tag">
		<polygon points="0.5,3 10.5,3 15.5,8 10.5,13 0.5,13 		"/>
	</g>
	<g id="Layer_1_1_">
		<g id="delete">
			<path fill="#010101" d="M10.233,8l3.35-3.349c0.617-0.616,0.617-1.616,0-2.233s-1.616-0.617-2.233,0L8,5.767L4.65,2.418
				c-0.617-0.617-1.617-0.617-2.233,0C1.8,3.035,1.8,4.034,2.417,4.651L5.767,8l-3.35,3.349c-0.617,0.617-0.617,1.616,0,2.233
				c0.308,0.308,0.713,0.463,1.117,0.463s0.808-0.154,1.117-0.463L8,10.233l3.35,3.349c0.308,0.308,0.713,0.463,1.117,0.463
				s0.808-0.154,1.117-0.463c0.617-0.617,0.617-1.616,0-2.233L10.233,8z"/>
		</g>
	</g>
	<g id="Layer_2">
		<g id="ascending">
			<polygon fill="#010101" points="8,4.222 15.547,11.778 0.453,11.778 			"/>
		</g>
	</g>
	<g id="Layer_3">
		<g id="ban">
			<path fill="#010101" d="M8,0.419C3.82,0.419,0.42,3.82,0.42,8s3.4,7.581,7.58,7.581c4.179,0,7.58-3.401,7.58-7.581
				S12.179,0.419,8,0.419z M13.053,8c0,0.934-0.272,1.799-0.716,2.55L5.449,3.663C6.2,3.219,7.065,2.946,8,2.946
				C10.786,2.946,13.053,5.213,13.053,8z M2.947,8c0-0.934,0.272-1.799,0.715-2.55l6.889,6.888C9.799,12.781,8.934,13.054,8,13.054
				C5.213,13.054,2.947,10.787,2.947,8z"/>
		</g>
	</g>
	<g id="Layer_4">
		<g id="descending">
			<polygon fill="#010101" points="0.453,4.222 15.547,4.222 8,11.778 			"/>
		</g>
	</g>
	<g id="Layer_5">
		<g id="edit">
			<path fill="#010101" d="M5.555,15.842H0.158v-5.398L10.445,0.158l5.397,5.397L5.555,15.842z M2.685,13.315h1.823l7.76-7.76
				l-1.823-1.823l-7.76,7.76C2.685,11.492,2.685,13.315,2.685,13.315z"/>
		</g>
	</g>
	<g id="Layer_6">
		<g id="approve">
			<path fill="#010101" d="M5.731,13.872c-0.008,0-0.015,0-0.023,0c-0.427-0.006-0.833-0.185-1.126-0.496L0.534,9.083
				C-0.064,8.449-0.035,7.45,0.599,6.851c0.636-0.598,1.636-0.568,2.233,0.065l2.933,3.11L13.2,2.59
				c0.617-0.617,1.616-0.617,2.233,0c0.617,0.616,0.617,1.616,0,2.233L6.848,13.41C6.552,13.706,6.15,13.872,5.731,13.872z"/>
		</g>
	</g>
	<g id="Layer_7">
		<g id="flag">
			<path fill="#010101" d="M12.181,5.894l2.737-5.475H1.082v1.264v9.687v2.948c0,0.698,0.566,1.264,1.264,1.264
				s1.264-0.565,1.264-1.264V11.37h11.309L12.181,5.894z M10.83,8.842H3.609V2.946h7.221L9.356,5.894L10.83,8.842z"/>
		</g>
	</g>
	<g id="Layer_8">
		
			<polygon fill="none" stroke="#000000" stroke-width="2.4" stroke-linecap="round" stroke-linejoin="round" stroke-miterlimit="10" points="
			6,14 10,10 14,10 14,2 2,2 2,10 6,10 		"/>
		<g id="Layer_8_1_">
			<path d="M6,15.2c-0.154,0-0.31-0.03-0.458-0.092C5.092,14.923,4.8,14.485,4.8,14v-2.8H2c-0.663,0-1.2-0.537-1.2-1.2V2
				c0-0.663,0.538-1.2,1.2-1.2h12c0.663,0,1.2,0.538,1.2,1.2v8c0,0.663-0.537,1.2-1.2,1.2h-3.503l-3.648,3.648
				C6.619,15.078,6.312,15.2,6,15.2z M3.2,8.8H6c0.663,0,1.2,0.537,1.2,1.2v1.103l1.951-1.951C9.377,8.927,9.682,8.8,10,8.8h2.8V3.2
				H3.2V8.8z"/>
		</g>
	</g>
</g>
<g id="Layer_2_1_">
	<path fill="#010101" d="M15.971,8.146c0.038-0.093,0.038-0.198,0-0.291c-0.019-0.047-0.047-0.089-0.083-0.124L8.27,0.111
		c-0.149-0.149-0.39-0.149-0.539,0s-0.149,0.39,0,0.539L14.7,7.619H0.381C0.171,7.619,0,7.79,0,8s0.171,0.381,0.381,0.381H14.7
		L7.731,15.35c-0.149,0.149-0.149,0.39,0,0.539C7.805,15.963,7.903,16,8,16c0.098,0,0.195-0.037,0.269-0.112l7.619-7.619
		C15.924,8.234,15.952,8.192,15.971,8.146z"/>
</g>
<g id="Layer_3_1_">
	<path fill="#464748" d="M2.054,0h11.893C15.076,0,16,0.924,16,2.054v11.893C16,15.076,15.076,16,13.946,16H2.054
		C0.924,16,0,15.076,0,13.946V2.054C0,0.924,0.924,0,2.054,0L2.054,0z M11.655,1.778c-0.396,0-0.72,0.324-0.72,0.72v1.724
		c0,0.396,0.324,0.72,0.72,0.72h1.808c0.396,0,0.72-0.324,0.72-0.72V2.498c0-0.396-0.324-0.72-0.72-0.72L11.655,1.778L11.655,1.778z
		 M14.192,6.766h-1.408c0.133,0.435,0.205,0.896,0.205,1.373c0,2.661-2.227,4.819-4.973,4.819S3.042,10.8,3.042,8.139
		c0-0.477,0.072-0.938,0.205-1.373H1.778v6.759c0,0.35,0.286,0.636,0.636,0.636h11.142c0.35,0,0.636-0.286,0.636-0.636L14.192,6.766
		L14.192,6.766z M8.015,4.852c-1.775,0-3.213,1.394-3.213,3.114s1.439,3.114,3.213,3.114s3.213-1.394,3.213-3.114
		C11.229,6.246,9.79,4.852,8.015,4.852z"/>
</g>
<g id="Layer_4_1_">
	<path d="M1.143,12.857V6c0.19,0.214,0.396,0.411,0.616,0.589c1.595,1.226,2.863,2.232,3.804,3.018
		c0.304,0.256,0.551,0.455,0.741,0.598c0.19,0.143,0.448,0.287,0.772,0.433s0.629,0.219,0.915,0.219H8h0.009
		c0.286,0,0.591-0.073,0.915-0.219c0.324-0.146,0.582-0.29,0.772-0.433c0.19-0.143,0.437-0.342,0.741-0.598
		c0.94-0.786,2.208-1.792,3.804-3.018c0.22-0.179,0.426-0.375,0.616-0.589v6.857c0,0.077-0.028,0.144-0.085,0.201
		c-0.056,0.056-0.124,0.085-0.201,0.085H1.429c-0.077,0-0.144-0.028-0.201-0.085C1.171,13.001,1.143,12.934,1.143,12.857z
		 M1.143,3.473V3.375v-0.12c0,0,0.001-0.039,0.004-0.116C1.15,3.061,1.159,3.024,1.174,3.027c0.015,0.003,0.031-0.024,0.049-0.08
		s0.045-0.079,0.08-0.067c0.036,0.012,0.077,0.004,0.125-0.022h13.143c0.077,0,0.144,0.028,0.201,0.085
		c0.056,0.056,0.085,0.124,0.085,0.201c0,1-0.437,1.845-1.312,2.536c-1.149,0.905-2.342,1.848-3.58,2.83
		c-0.036,0.03-0.14,0.118-0.312,0.263C9.479,8.918,9.342,9.03,9.241,9.107C9.14,9.184,9.008,9.278,8.844,9.388
		C8.68,9.498,8.53,9.58,8.393,9.634c-0.137,0.054-0.265,0.08-0.384,0.08H8H7.991c-0.119,0-0.247-0.027-0.384-0.08
		C7.47,9.58,7.32,9.499,7.156,9.388C6.992,9.278,6.86,9.184,6.759,9.107S6.521,8.918,6.348,8.772
		C6.176,8.626,6.071,8.539,6.036,8.509c-1.238-0.982-2.432-1.926-3.58-2.83c-0.321-0.256-0.62-0.6-0.897-1.031
		S1.143,3.824,1.143,3.473z M0,3.143v9.714c0,0.393,0.14,0.729,0.42,1.009c0.28,0.28,0.616,0.42,1.009,0.42h13.143
		c0.393,0,0.729-0.14,1.009-0.42c0.28-0.28,0.42-0.616,0.42-1.009V3.143c0-0.393-0.14-0.729-0.42-1.009
		c-0.28-0.28-0.616-0.42-1.009-0.42H1.429c-0.393,0-0.729,0.14-1.009,0.42S0,2.75,0,3.143z"/>
</g>
<g id="Layer_5_1_">
	<g>
		<path d="M8,1.64c-3.559,0-6.444,2.885-6.444,6.444S4.441,14.527,8,14.527s6.444-2.885,6.444-6.444S11.559,1.64,8,1.64z M8,12.981
			c-2.7,0-4.897-2.197-4.897-4.897S5.3,3.187,8,3.187s4.897,2.197,4.897,4.897S10.7,12.981,8,12.981z"/>
		<path d="M8.258,4.733c-0.285,0-0.515,0.231-0.515,0.515v2.577H5.68c-0.285,0-0.515,0.231-0.515,0.515
			c0,0.285,0.231,0.515,0.515,0.515h3.093V5.249C8.773,4.964,8.543,4.733,8.258,4.733z"/>
	</g>
</g>
<g id="Layer_6_1_">
	<path d="M12.469,3.449l1.411-2.617l-1.361-0.734l-1.299,2.41C10.272,1.959,9.174,1.64,8,1.64c-3.559,0-6.444,2.885-6.444,6.444
		S4.441,14.527,8,14.527s6.444-2.885,6.444-6.444C14.444,6.262,13.685,4.62,12.469,3.449z M8,12.981c-2.7,0-4.897-2.197-4.897-4.897
		c0-2.7,2.197-4.897,4.897-4.897c0.908,0,1.755,0.253,2.485,0.685L7.794,8.863l-2.13-1.799L4.666,8.245l3.585,3.028l3.446-6.391
		c0.746,0.86,1.2,1.978,1.2,3.202C12.897,10.784,10.7,12.981,8,12.981z"/>
</g>
<g id="Layer_7_1_">
	<g>
		<path fill="#F67070" d="M8,0C3.589,0,0,3.589,0,8c0,4.411,3.589,8,8,8c4.411,0,8-3.589,8-8C16,3.589,12.411,0,8,0z M8,14.877
			c-3.792,0-6.877-3.085-6.877-6.877c0-3.792,3.085-6.877,6.877-6.877c3.793,0,6.877,3.085,6.877,6.877
			C14.877,11.793,11.793,14.877,8,14.877z"/>
		<path fill="#F67070" d="M8,3.967C5.776,3.967,3.967,5.776,3.967,8c0,2.223,1.809,4.033,4.033,4.033
			c2.223,0,4.033-1.809,4.033-4.033C12.033,5.776,10.223,3.967,8,3.967z M8,10.91c-1.605,0-2.91-1.305-2.91-2.91
			c0-1.605,1.306-2.91,2.91-2.91c1.605,0,2.91,1.306,2.91,2.91C10.91,9.605,9.605,10.91,8,10.91z"/>
		<path fill="#F67070" d="M8,6.058C6.929,6.058,6.058,6.929,6.058,8S6.929,9.942,8,9.942S9.942,9.071,9.942,8S9.071,6.058,8,6.058z
			 M8,8.819C7.548,8.819,7.181,8.452,7.181,8S7.548,7.181,8,7.181S8.819,7.548,8.819,8S8.452,8.819,8,8.819z"/>
	</g>
</g>
<g id="Layer_8_2_">
	<g>
		<circle fill="#CCCCCC" cx="8.8" cy="7.2" r="0.8"/>
		<polygon fill="#CCCCCC" points="10.752,13.888 10.752,10.368 7.894,11.904 2.047,9.344 2.047,13.888 2.048,13.888 		"/>
		<path fill="#CCCCCC" d="M15.04,0H4.16C3.63,0,3.2,0.43,3.2,0.96V3.2H0.96C0.43,3.2,0,3.63,0,4.16v10.88C0,15.57,0.43,16,0.96,16
			h10.88c0.53,0,0.96-0.43,0.96-0.96V12.8h2.24c0.53,0,0.96-0.43,0.96-0.96V0.96C16,0.43,15.57,0,15.04,0z M11.52,14.72H1.28V4.48
			h10.24V14.72z M14.72,11.52H12.8V4.16c0-0.53-0.43-0.96-0.96-0.96H4.48V1.28h10.24V11.52z"/>
	</g>
</g>
</svg>
