<?xml version="1.0" encoding="utf-8"?>
<!-- Generator: Adobe Illustrator 17.0.0, SVG Export Plug-In . SVG Version: 6.00 Build 0)  -->
<!DOCTYPE svg PUBLIC "-//W3C//DTD SVG 1.1//EN" "http://www.w3.org/Graphics/SVG/1.1/DTD/svg11.dtd">
<svg version="1.1" id="Layer_1" xmlns="http://www.w3.org/2000/svg" xmlns:xlink="http://www.w3.org/1999/xlink" x="0px" y="0px"
	 width="21px" height="21px" viewBox="0 0 21 21" enable-background="new 0 0 21 21" xml:space="preserve">
<path fill="#646565" d="M12.621,10.5l7.939-7.94c0.586-0.586,0.586-1.536,0-2.121c-0.586-0.586-1.535-0.586-2.121,0L10.5,8.379
	l-7.939-7.94c-0.586-0.586-1.535-0.586-2.121,0c-0.586,0.585-0.586,1.535,0,2.121l7.939,7.94l-7.939,7.94
	c-0.586,0.586-0.586,1.535,0,2.121C0.732,20.854,1.116,21,1.5,21s0.768-0.146,1.061-0.439l7.939-7.94l7.939,7.94
	C18.732,20.854,19.116,21,19.5,21s0.768-0.146,1.061-0.439c0.586-0.586,0.586-1.535,0-2.121L12.621,10.5z"/>
</svg>
