<svg version="1.1" xmlns="http://www.w3.org/2000/svg" width="100px" height="55.795px" viewBox="0 0 100 55.795">
  <path fill="rgb(6, 12, 13)" d="M41.135,44.138c0,2.142-1.752,3.885-3.901,3.885c-2.151,0-3.901-1.743-3.901-3.885v-32.49
    c0-2.139,1.75-3.883,3.901-3.883c2.149,0,3.901,1.743,3.901,3.883V44.138z M37.234,0C30.781,0,25.53,5.225,25.53,11.648v32.49
    c0,6.421,5.25,11.656,11.703,11.656s11.701-5.234,11.701-11.656v-32.49C48.935,5.225,43.687,0,37.234,0z"/>
  <path fill="rgb(6, 12, 13)" d="M11.701,0.001C5.25,0.001,0,5.226,0,11.649v32.49c0,6.421,5.25,11.656,11.701,11.656
    c2.745,0,5.262-0.955,7.26-2.532l0.897,2.532h2.835c0.392,0,0.709-0.316,0.709-0.71V23.306c0-0.391-0.317-0.705-0.709-0.705H12.058
    c-0.394,0-0.712,0.313-0.712,0.705v6.354c0,0.394,0.318,0.707,0.712,0.707h3.544V44.14c0,2.142-1.75,3.885-3.901,3.885
    S7.8,46.282,7.8,44.14V11.65c0-2.139,1.75-3.883,3.901-3.883s3.901,1.743,3.901,3.883v2.475c0,0.387,0.318,0.705,0.712,0.705h6.379
    c0.392,0,0.709-0.318,0.709-0.705V11.65C23.402,5.226,18.155,0.001,11.701,0.001z"/>
  <path fill="rgb(6, 12, 13)" d="M66.668,44.138c0,2.142-1.75,3.885-3.901,3.885s-3.904-1.743-3.904-3.885v-32.49
    c0-2.139,1.753-3.883,3.904-3.883s3.901,1.743,3.901,3.883V44.138z M62.767,0c-6.453,0-11.702,5.225-11.702,11.648v32.49
    c0,6.421,5.248,11.656,11.702,11.656c6.453,0,11.701-5.234,11.701-11.656v-32.49C74.467,5.225,69.22,0,62.767,0z"/>
  <path fill="rgb(6, 12, 13)" d="M92.198,44.138c0,2.142-1.748,3.885-3.901,3.885h-3.901V7.765h3.901c2.153,0,3.901,1.743,3.901,3.883V44.138
    z M88.297,0H77.305c-0.392,0-0.709,0.313-0.709,0.705v54.38c0,0.394,0.317,0.71,0.709,0.71h10.992
    C94.75,55.794,100,50.56,100,44.138v-32.49C100,5.225,94.75,0,88.297,0z"/>
</svg>
