<?xml version="1.0" encoding="utf-8"?>
<!-- Generator: Adobe Illustrator 17.0.0, SVG Export Plug-In . SVG Version: 6.00 Build 0)  -->
<!DOCTYPE svg PUBLIC "-//W3C//DTD SVG 1.1//EN" "http://www.w3.org/Graphics/SVG/1.1/DTD/svg11.dtd">
<svg version="1.1" id="Layer_1" xmlns="http://www.w3.org/2000/svg" xmlns:xlink="http://www.w3.org/1999/xlink" x="0px" y="0px"
	 width="100px" height="100px" viewBox="0 0 100 100" enable-background="new 0 0 100 100" xml:space="preserve">
<path fill-rule="evenodd" clip-rule="evenodd" fill="#464748" d="M12.835,0h74.33C94.224,0,100,5.776,100,12.835v74.33
	C100,94.224,94.224,100,87.165,100h-74.33C5.776,100,0,94.224,0,87.165v-74.33C0,5.776,5.776,0,12.835,0L12.835,0z M72.846,11.111
	c-2.476,0-4.502,2.026-4.502,4.502v10.776c0,2.476,2.026,4.502,4.502,4.502h11.303c2.476,0,4.502-2.026,4.502-4.502V15.612
	c0-2.476-2.026-4.502-4.502-4.502H72.846L72.846,11.111z M88.697,42.289h-8.802c0.833,2.72,1.282,5.599,1.282,8.58
	c0,16.633-13.917,30.117-31.083,30.117c-17.166,0-31.082-13.484-31.082-30.117c0-2.981,0.449-5.861,1.282-8.58h-9.184v42.242
	c0,2.186,1.789,3.975,3.975,3.975h69.636c2.186,0,3.975-1.789,3.975-3.975V42.289L88.697,42.289z M50.095,30.323
	c-11.092,0-20.084,8.712-20.084,19.46c0,10.748,8.992,19.46,20.084,19.46c11.092,0,20.084-8.712,20.084-19.46
	C70.179,39.036,61.187,30.323,50.095,30.323z"/>
</svg>
