<?xml version="1.0" encoding="utf-8"?>
<!-- Generator: Adobe Illustrator 17.0.0, SVG Export Plug-In . SVG Version: 6.00 Build 0)  -->
<!DOCTYPE svg PUBLIC "-//W3C//DTD SVG 1.1//EN" "http://www.w3.org/Graphics/SVG/1.1/DTD/svg11.dtd">
<svg version="1.1" id="Layer_1" xmlns="http://www.w3.org/2000/svg" xmlns:xlink="http://www.w3.org/1999/xlink" x="0px" y="0px"
	 width="100px" height="93.623px" viewBox="0 0 100 93.623" enable-background="new 0 0 100 93.623" xml:space="preserve">
<g>
	<path fill="#464748" d="M17.344,0.943c0.728,0.303,1.457,0.669,2.187,1.093c0.667,0.486,1.306,1.032,1.914,1.64
		s1.154,1.245,1.638,1.914c0.427,0.608,0.791,1.245,1.095,1.914c0.181,0.486,0.332,1.001,0.456,1.55
		C24.756,9.6,24.878,10.179,25,10.784c0.061,0.608,0.09,1.215,0.09,1.823c0,0.547-0.029,1.093-0.09,1.64
		c-0.122,0.545-0.244,1.093-0.366,1.638c-0.122,0.486-0.275,0.972-0.456,1.457c-0.244,0.486-0.486,0.973-0.73,1.459
		c-0.305,0.486-0.608,0.942-0.911,1.367c-0.366,0.425-0.728,0.85-1.093,1.274c-0.425,0.366-0.852,0.73-1.276,1.093
		c-0.425,0.364-0.881,0.698-1.367,1.001c-0.486,0.244-0.972,0.456-1.457,0.639c-0.486,0.183-0.973,0.366-1.457,0.547
		c-1.095,0.244-2.157,0.364-3.19,0.364h-0.092c-0.608,0-1.184-0.031-1.729-0.09c-0.61-0.061-1.186-0.151-1.733-0.273
		c-0.547-0.122-1.095-0.305-1.64-0.547c-1.457-0.547-2.734-1.457-3.827-2.734c-0.911-0.85-1.611-1.731-2.096-2.643
		c-0.305-0.486-0.547-0.973-0.728-1.459c-0.183-0.486-0.334-0.972-0.456-1.457c-0.183-0.547-0.273-1.093-0.273-1.638
		C0,13.699-0.031,13.15,0.032,12.605c-0.063-0.911,0-1.762,0.181-2.551c0.122-0.85,0.334-1.64,0.639-2.37
		c0.303-0.73,0.696-1.43,1.184-2.096C2.46,4.92,3.009,4.283,3.676,3.675c0.789-0.85,1.638-1.518,2.551-2.006
		c0.972-0.547,2.006-0.972,3.099-1.274c0.486-0.122,1.034-0.212,1.64-0.273c0.547-0.122,1.093-0.151,1.638-0.09
		c0.852-0.061,1.672,0,2.462,0.183C15.853,0.336,16.614,0.579,17.344,0.943z"/>
	<polygon fill="#464748" points="24.906,32.474 24.906,93.531 24.815,93.619 1.851,93.619 1.851,32.474 	"/>
	<path fill="#464748" d="M60.628,35.572c1.032-0.547,2.128-1.032,3.28-1.457c1.093-0.425,2.218-0.759,3.373-1.003
		c1.154-0.303,2.336-0.517,3.554-0.637c1.215-0.183,2.462-0.244,3.735-0.183h2.096l4.01,0.547c0.669,0.061,1.337,0.183,2.006,0.366
		c0.608,0.183,1.215,0.364,1.823,0.547c0.545,0.183,1.121,0.425,1.731,0.73h0.183c3.646,1.64,6.411,3.646,8.293,6.016h0.273
		c0.486,0.608,0.942,1.245,1.367,1.914c0.366,0.669,0.698,1.367,1.003,2.096c0.303,0.669,0.61,1.367,0.911,2.096
		c0.122,0.303,0.244,0.637,0.366,1.003c0.063,0.425,0.151,0.852,0.275,1.276v0.181c0.181,0.667,0.332,1.455,0.454,2.368
		c0.122,0.852,0.244,1.794,0.366,2.828c0.061,0.972,0.122,2.065,0.183,3.28c0.059,1.154,0.09,2.401,0.09,3.735v32.261l-0.09,0.088
		H76.941v-28.16c-0.061-6.746-0.429-11.027-1.095-12.85c-0.608-1.64-1.518-2.915-2.736-3.827c-0.667-0.486-1.396-0.82-2.187-1.001
		c-0.364-0.061-0.696-0.122-1.001-0.183c-0.486-0.061-0.972-0.09-1.457-0.09c-0.547,0-1.032,0.031-1.457,0.09
		c-0.366,0.061-0.73,0.122-1.095,0.183c-0.852,0.122-1.672,0.364-2.46,0.73c-0.789,0.303-1.489,0.696-2.096,1.184
		c-0.608,0.364-1.152,0.818-1.638,1.367c-0.486,0.547-0.913,1.125-1.276,1.731c-0.366,0.61-0.669,1.306-0.911,2.094l-0.183,0.094
		l-0.366,1.548l-0.911,9.475v27.523l-0.09,0.089H33.016V32.474h21.779v7.017c0.913-0.789,1.853-1.518,2.826-2.187
		C58.594,36.636,59.595,36.058,60.628,35.572z"/>
</g>
</svg>
