<?xml version="1.0" encoding="utf-8"?>
<!-- Generator: Adobe Illustrator 17.0.0, SVG Export Plug-In . SVG Version: 6.00 Build 0)  -->
<!DOCTYPE svg PUBLIC "-//W3C//DTD SVG 1.1//EN" "http://www.w3.org/Graphics/SVG/1.1/DTD/svg11.dtd">
<svg version="1.1" id="Layer_1" xmlns="http://www.w3.org/2000/svg" xmlns:xlink="http://www.w3.org/1999/xlink" x="0px" y="0px"
	 width="100px" height="100.003px" viewBox="0 0 100 100.003" enable-background="new 0 0 100 100.003" xml:space="preserve">
<g>
	<path fill="rgb(69, 71, 71)" d="M50.002,0C22.388,0,0,22.386,0,50.001c0,20.474,12.312,38.063,29.929,45.796
		c-0.141-3.491-0.025-7.683,0.87-11.481c0.961-4.059,6.434-27.245,6.434-27.245s-1.598-3.193-1.598-7.911
		c0-7.409,4.295-12.944,9.643-12.944c4.548,0,6.745,3.416,6.745,7.507c0,4.572-2.916,11.411-4.416,17.744
		c-1.253,5.304,2.659,9.63,7.892,9.63c9.473,0,15.854-12.167,15.854-26.584c0-10.959-7.381-19.161-20.806-19.161
		c-15.167,0-24.616,11.311-24.616,23.945c0,4.356,1.284,7.428,3.296,9.807c0.925,1.093,1.054,1.532,0.719,2.787
		c-0.24,0.92-0.791,3.135-1.019,4.013c-0.333,1.266-1.359,1.719-2.504,1.251c-6.986-2.852-10.24-10.502-10.24-19.102
		c0-14.204,11.979-31.235,35.735-31.235c19.09,0,31.654,13.814,31.654,28.643c0,19.614-10.905,34.268-26.979,34.268
		c-5.398,0-10.476-2.918-12.215-6.232c0,0-2.903,11.52-3.518,13.745c-1.06,3.855-3.135,7.708-5.032,10.711
		c4.497,1.328,9.247,2.05,14.171,2.05c27.611,0,49.998-22.386,49.998-50.002C100,22.386,77.613,0,50.002,0z"/>
</g>
</svg>
