<?xml version="1.0" encoding="utf-8"?>
<!-- Generator: Adobe Illustrator 17.0.0, SVG Export Plug-In . SVG Version: 6.00 Build 0)  -->
<!DOCTYPE svg PUBLIC "-//W3C//DTD SVG 1.1//EN" "http://www.w3.org/Graphics/SVG/1.1/DTD/svg11.dtd">
<svg version="1.1" id="Layer_1" xmlns="http://www.w3.org/2000/svg" xmlns:xlink="http://www.w3.org/1999/xlink" x="0px" y="0px"
	 width="100px" height="100px" viewBox="0 0 100 100" enable-background="new 0 0 100 100" xml:space="preserve">
<g>
	<path fill="rgb(221, 223, 227)" d="M0,33.968c8.942,0,17.513,1.72,25.716,5.159c7.884,3.388,14.841,8.12,20.872,14.206
		c6.137,6.087,10.874,13.096,14.207,21.033c3.438,8.146,5.159,16.693,5.159,25.635H46.827v-0.08c0-6.245-1.19-12.222-3.571-17.938
		c-2.381-5.714-5.769-10.766-10.16-15.158c-4.445-4.392-9.497-7.803-15.158-10.239c-5.714-2.382-11.695-3.573-17.936-3.573V33.968H0
		z"/>
	<path fill="rgb(221, 223, 227)" d="M80.875,100c0-10.953-2.144-21.428-6.43-31.431c-4.126-9.735-9.893-18.306-17.302-25.712
		c-7.512-7.516-16.085-13.308-25.714-17.381C21.43,21.19,10.951,19.048,0,19.048V0c5.08,0,10.105,0.368,15.079,1.11
		c8.149,1.218,16.086,3.465,23.809,6.745c11.957,5.08,22.566,12.248,31.825,21.509C79.92,38.57,87.062,49.153,92.142,61.11
		c5.185,12.382,7.803,25.344,7.858,38.888H80.875V100z"/>
	<path fill="rgb(221, 223, 227)" d="M13.255,73.413c3.599,0,6.745,1.297,9.444,3.89c2.591,2.593,3.89,5.688,3.89,9.287
		c0,3.65-1.297,6.772-3.89,9.364c-2.591,2.595-5.741,3.89-9.444,3.89s-6.825-1.297-9.364-3.89c-2.593-2.538-3.89-5.661-3.89-9.364
		s1.297-6.801,3.89-9.287C6.481,74.709,9.604,73.413,13.255,73.413z"/>
</g>
</svg>
