<?xml version="1.0" encoding="utf-8"?>
<!-- Generator: Adobe Illustrator 17.0.0, SVG Export Plug-In . SVG Version: 6.00 Build 0)  -->
<!DOCTYPE svg PUBLIC "-//W3C//DTD SVG 1.1//EN" "http://www.w3.org/Graphics/SVG/1.1/DTD/svg11.dtd">
<svg version="1.1" id="Layer_1" xmlns="http://www.w3.org/2000/svg" xmlns:xlink="http://www.w3.org/1999/xlink" x="0px" y="0px"
	 width="75.065px" height="51.758px" viewBox="0 0 75.065 51.758" enable-background="new 0 0 75.065 51.758" xml:space="preserve">
<path fill="#464748" d="M11.212,5.607c6.642,2.533,13.037,5.421,19.184,8.665c0.927,0.463,1.808,1.02,2.641,1.668
	c1.051,0.896,2.102,1.808,3.151,2.734c1.421-3.552,3.09-6.95,5.005-10.194c0.927-1.637,2.023-3.15,3.289-4.541
	c1.052-1.206,2.193-2.332,3.43-3.383l-1.113,2.177C48.468,1.343,50.43,0.432,52.684,0c-0.031,0.463-0.216,0.833-0.556,1.111
	c-0.123,0.124-0.246,0.247-0.371,0.371c-0.153,0.124-0.308,0.231-0.464,0.324c-0.184,0.124-0.385,0.216-0.601,0.279
	c-0.463,0.278-0.942,0.525-1.437,0.741c1.174-0.34,2.27-0.695,3.29-1.066c0.433-0.216,0.896-0.37,1.391-0.463
	c0.185-0.031,0.385-0.046,0.601-0.046c0.125-0.062,0.265-0.092,0.418-0.092c0.246,0.031,0.494,0.077,0.74,0.139
	c0.095,0.093,0.201,0.201,0.326,0.325c0.153,0.525-0.125,0.973-0.835,1.343c-0.649,0.31-1.312,0.587-1.992,0.834
	c-0.494,0.124-0.988,0.262-1.482,0.417C51,4.433,50.291,4.665,49.579,4.912c3.244-0.217,6.194,0.54,8.852,2.271
	c1.203,0.803,2.286,1.76,3.243,2.873c1.823,2.101,3.09,4.542,3.8,7.321c0.153,0.556,0.293,1.127,0.416,1.714
	c2.009,0.525,4.063,0.54,6.163,0.046c0.65-0.216,1.298-0.463,1.946-0.741c0.278-0.092,0.541-0.201,0.789-0.324
	c-0.865,1.791-2.225,3.058-4.078,3.799c-0.835,0.339-1.7,0.587-2.596,0.741c-0.494,0.186-0.988,0.31-1.482,0.371
	c1.669,0.649,3.414,0.988,5.236,1.019c0.74,0,1.482,0,2.225,0c0.308-0.062,0.634-0.123,0.972-0.186
	c-1.328,1.514-2.965,2.518-4.91,3.012c-0.865,0.124-1.716,0.247-2.549,0.371c-0.494,0-0.974,0.016-1.438,0.046
	c-1.111,4.664-3.305,8.711-6.579,12.141c-1.73,1.821-3.614,3.443-5.652,4.866c-4.078,2.934-8.559,5.003-13.438,6.208
	c-5.097,1.298-10.272,1.622-15.523,0.974c-7.229-0.99-13.639-3.832-19.23-8.526C3.553,41.085,1.638,39.047,0,36.792
	c2.749,2.657,6.023,4.323,9.823,5.004c1.978,0.339,3.954,0.417,5.932,0.232c3.058-0.248,5.808-1.175,8.248-2.78
	c1.39-0.927,2.688-2.01,3.892-3.244c-1.514,0.402-2.918,0.107-4.216-0.881c-0.494-0.433-0.818-1.003-0.973-1.715
	c-0.247-1.203,0.138-2.13,1.158-2.779c0.556-0.341,1.112-0.665,1.668-0.973c-2.626,0.339-4.927-0.31-6.904-1.947
	c-0.587-0.463-1.127-0.988-1.622-1.575c-0.278-0.339-0.525-0.68-0.741-1.019c0.988-1.019,2.147-1.622,3.476-1.808
	c0.556-0.092,1.127-0.17,1.714-0.231c-2.224-0.433-4.232-1.437-6.023-3.012c-0.988-0.865-1.668-1.915-2.039-3.15
	c-0.124-0.463-0.248-0.911-0.371-1.344l4.633-0.51c-2.163-1.02-3.892-2.548-5.189-4.587c-0.031-0.062-0.062-0.124-0.093-0.186
	c-0.68-1.112-1.051-2.271-1.112-3.475C11.228,6.409,11.212,6.008,11.212,5.607z"/>
</svg>
