<?xml version="1.0" encoding="utf-8"?>
<!-- Generator: Adobe Illustrator 17.0.0, SVG Export Plug-In . SVG Version: 6.00 Build 0)  -->
<!DOCTYPE svg PUBLIC "-//W3C//DTD SVG 1.1//EN" "http://www.w3.org/Graphics/SVG/1.1/DTD/svg11.dtd">
<svg version="1.1" id="Layer_1" xmlns="http://www.w3.org/2000/svg" xmlns:xlink="http://www.w3.org/1999/xlink" x="0px" y="0px"
	 width="47.961px" height="100px" viewBox="0 0 47.961 100" enable-background="new 0 0 47.961 100" xml:space="preserve">
<path fill="#464748" d="M19.585,2.288C20.11,1.954,20.682,1.669,21.3,1.43c0.572-0.238,1.216-0.452,1.93-0.643L27.162,0h2.572
	l18.158,1.43h0.069L46.106,18.3h-0.074l-10.005-1.072h-0.287l-1.001,0.143l-0.356,0.142l-1.142,0.572
	c-0.241,0.048-0.43,0.167-0.572,0.358l-0.858,0.93c-0.193,0.238-0.356,0.524-0.503,0.858c-0.142,0.287-0.262,0.597-0.356,0.93
	c-0.096,0.333-0.164,0.69-0.213,1.072c-0.049,0.333-0.073,0.691-0.073,1.072l0.142,10.579l14.727,0.143L43.389,50.75l-12.723,0.5
	v48.68L30.593,100h-19.87V50.823H0V34.025h10.292v-0.143l0.071-0.214l0.358-17.942l0.142-1v-0.501l0.143-0.5
	c0.048-0.381,0.143-0.739,0.287-1.072c0.096-0.333,0.238-0.643,0.429-0.93c0.191-0.714,0.452-1.358,0.787-1.93
	c0.285-0.619,0.643-1.216,1.072-1.788c0.333-0.524,0.739-1.024,1.214-1.501c0.429-0.524,0.882-1.001,1.359-1.43V5.001L19.585,2.288z
	"/>
</svg>
