<?xml version="1.0" encoding="utf-8"?>
<!-- Generator: Adobe Illustrator 17.0.0, SVG Export Plug-In . SVG Version: 6.00 Build 0)  -->
<!DOCTYPE svg PUBLIC "-//W3C//DTD SVG 1.1//EN" "http://www.w3.org/Graphics/SVG/1.1/DTD/svg11.dtd">
<svg version="1.1" id="Layer_1" xmlns="http://www.w3.org/2000/svg" xmlns:xlink="http://www.w3.org/1999/xlink" x="0px" y="0px"
	 width="100px" height="78.571px" viewBox="0 0 100 78.571" enable-background="new 0 0 100 78.571" xml:space="preserve">
<path fill="rgb(253, 254, 255)" d="M7.143,69.643V26.786c1.19,1.339,2.474,2.567,3.85,3.683c9.97,7.664,17.894,13.951,23.772,18.862
	c1.897,1.6,3.441,2.846,4.632,3.739c1.19,0.893,2.799,1.795,4.827,2.706c2.028,0.911,3.934,1.367,5.72,1.367H50h0.056
	c1.786,0,3.692-0.456,5.72-1.367c2.028-0.911,3.637-1.814,4.827-2.706c1.19-0.893,2.734-2.139,4.632-3.739
	c5.878-4.911,13.802-11.198,23.772-18.862c1.376-1.116,2.66-2.344,3.85-3.683v42.857c0,0.484-0.177,0.902-0.53,1.256
	c-0.353,0.353-0.772,0.53-1.256,0.53H8.929c-0.484,0-0.902-0.177-1.256-0.53C7.32,70.545,7.143,70.126,7.143,69.643z M7.143,10.993
	v-0.614V9.626c0,0,0.009-0.242,0.028-0.725c0.019-0.484,0.074-0.716,0.167-0.698s0.195-0.149,0.307-0.502
	c0.112-0.353,0.279-0.493,0.502-0.419c0.223,0.074,0.484,0.028,0.781-0.14h82.143c0.484,0,0.902,0.177,1.256,0.53
	c0.353,0.353,0.53,0.772,0.53,1.256c0,6.25-2.734,11.533-8.203,15.848c-7.18,5.655-14.639,11.551-22.377,17.69
	c-0.223,0.186-0.874,0.735-1.953,1.646c-1.079,0.911-1.935,1.609-2.567,2.093c-0.632,0.484-1.46,1.07-2.483,1.758
	s-1.962,1.2-2.818,1.535C51.6,49.833,50.8,50,50.056,50H50h-0.056c-0.744,0-1.544-0.167-2.4-0.502
	c-0.856-0.335-1.795-0.846-2.818-1.535s-1.851-1.274-2.483-1.758c-0.632-0.484-1.488-1.181-2.567-2.093
	c-1.079-0.911-1.73-1.46-1.953-1.646c-7.738-6.138-15.197-12.035-22.377-17.69c-2.009-1.6-3.878-3.748-5.608-6.445
	S7.143,13.188,7.143,10.993z M0,8.929l0,60.714c0,2.455,0.874,4.557,2.623,6.306s3.85,2.623,6.306,2.623h82.143
	c2.455,0,4.557-0.874,6.306-2.623S100,72.098,100,69.643V8.929c0-2.455-0.874-4.557-2.623-6.306S93.527,0,91.071,0L8.929,0
	C6.473,0,4.371,0.874,2.623,2.623S0,6.473,0,8.929z"/>
</svg>
