<?xml version="1.0" encoding="utf-8"?>
<!-- Generator: Adobe Illustrator 17.0.0, SVG Export Plug-In . SVG Version: 6.00 Build 0)  -->
<!DOCTYPE svg PUBLIC "-//W3C//DTD SVG 1.1//EN" "http://www.w3.org/Graphics/SVG/1.1/DTD/svg11.dtd">
<svg version="1.1" id="Layer_1" xmlns="http://www.w3.org/2000/svg" xmlns:xlink="http://www.w3.org/1999/xlink" x="0px" y="0px"
	 width="109px" height="109px" viewBox="0 0 109 109" enable-background="new 0 0 109 109" xml:space="preserve">
<path fill="rgb(253, 254, 255)" d="M61.3,71.343c-0.406-0.406-0.879-0.609-1.421-0.609H47.704c-0.541,0-1.014,0.203-1.421,0.609
	c-0.406,0.407-0.609,0.879-0.609,1.421v12.175c0,0.541,0.203,1.014,0.609,1.421c0.406,0.406,0.88,0.608,1.421,0.608h12.175
	c0.541,0,1.014-0.203,1.421-0.609c0.406-0.406,0.609-0.879,0.609-1.421V72.762C61.909,72.222,61.706,71.748,61.3,71.343z
	 M75.86,34.284c-1.386-2.553-3.179-4.71-5.377-6.468c-2.198-1.758-4.668-3.162-7.406-4.21c-2.739-1.048-5.462-1.573-8.168-1.573
	c-10.281,0-18.127,4.498-23.539,13.494c-0.271,0.44-0.364,0.913-0.279,1.421c0.084,0.508,0.347,0.93,0.786,1.268l8.319,6.342
	c0.44,0.271,0.862,0.406,1.268,0.406c0.609,0,1.133-0.271,1.573-0.812c2.435-3.044,4.244-4.988,5.428-5.834
	c1.455-0.981,3.281-1.471,5.479-1.471c2.063,0,3.881,0.541,5.453,1.623c1.573,1.082,2.359,2.334,2.359,3.754
	c0,1.59-0.423,2.875-1.268,3.856c-0.845,0.981-2.266,1.928-4.261,2.841c-2.638,1.184-5.056,3.018-7.255,5.505
	c-2.199,2.486-3.297,5.132-3.297,7.94v2.283c0,0.643,0.177,1.277,0.532,1.903c0.355,0.626,0.788,0.937,1.295,0.937h12.175
	c0.541,0,1.014-0.262,1.421-0.786s0.609-1.074,0.609-1.649c0-0.845,0.465-1.979,1.395-3.399c0.93-1.421,2.088-2.519,3.475-3.297
	c1.319-0.744,2.351-1.344,3.095-1.801s1.716-1.192,2.917-2.206s2.131-2.021,2.79-3.018c0.66-0.997,1.251-2.292,1.775-3.881
	s0.786-3.297,0.786-5.124C77.94,39.518,77.246,36.837,75.86,34.284z"/>
<circle fill="none" stroke="rgb(253, 254, 255)" stroke-width="9" stroke-miterlimit="10" cx="54.5" cy="54.5" r="50"/>
</svg>
