<?xml version="1.0" encoding="utf-8"?>
<!-- Generator: Adobe Illustrator 17.0.0, SVG Export Plug-In . SVG Version: 6.00 Build 0)  -->
<!DOCTYPE svg PUBLIC "-//W3C//DTD SVG 1.1//EN" "http://www.w3.org/Graphics/SVG/1.1/DTD/svg11.dtd">
<svg version="1.1" id="Layer_1" xmlns="http://www.w3.org/2000/svg" xmlns:xlink="http://www.w3.org/1999/xlink" x="0px" y="0px"
	 width="78.167px" height="78.167px" viewBox="0 0 78.167 78.167" enable-background="new 0 0 78.167 78.167" xml:space="preserve">
<circle fill="none" stroke="#2A2B2C" stroke-width="4" stroke-miterlimit="10" cx="39.083" cy="39.083" r="37.083"/>
<path fill="none" stroke="#2A2B2C" stroke-width="3" stroke-linejoin="round" stroke-miterlimit="10" d="M5.91,55.653
	c4.954,0,10.162,0,10.162,0V35.036h12.77V45.32"/>
<path fill="none" stroke="#2A2B2C" stroke-width="3" stroke-linejoin="round" stroke-miterlimit="10" d="M73.364,55.653
	c-5.608,0-11.27,0-11.27,0V44.036h-12.77V55.32"/>
<polyline fill="none" stroke="#2A2B2C" stroke-width="3" stroke-linejoin="round" stroke-miterlimit="10" points="28.842,34.32 
	28.842,19.578 49.284,19.578 49.284,44.653 "/>
<g>
	<rect x="18.345" y="37.616" fill="#2A2B2C" width="3.204" height="3.204"/>
	<rect x="23.409" y="37.616" fill="#2A2B2C" width="3.204" height="3.204"/>
	<rect x="18.345" y="42.589" fill="#2A2B2C" width="3.204" height="3.204"/>
	<rect x="23.409" y="42.589" fill="#2A2B2C" width="3.204" height="3.204"/>
</g>
<g>
	<rect x="32.345" y="23.011" fill="#2A2B2C" width="3.204" height="3.204"/>
	<rect x="37.41" y="23.011" fill="#2A2B2C" width="3.204" height="3.204"/>
	<rect x="32.345" y="27.985" fill="#2A2B2C" width="3.204" height="3.204"/>
	<rect x="37.41" y="27.985" fill="#2A2B2C" width="3.204" height="3.204"/>
</g>
<g>
	<rect x="42.576" y="23.011" fill="#2A2B2C" width="3.204" height="3.204"/>
	<rect x="42.576" y="27.985" fill="#2A2B2C" width="3.204" height="3.204"/>
</g>
<g>
	<rect x="32.345" y="33.527" fill="#2A2B2C" width="3.204" height="3.204"/>
	<rect x="37.41" y="33.527" fill="#2A2B2C" width="3.204" height="3.204"/>
	<rect x="32.345" y="38.5" fill="#2A2B2C" width="3.204" height="3.204"/>
	<rect x="37.41" y="38.5" fill="#2A2B2C" width="3.204" height="3.204"/>
</g>
<g>
	<rect x="42.576" y="33.527" fill="#2A2B2C" width="3.204" height="3.204"/>
	<rect x="42.576" y="38.5" fill="#2A2B2C" width="3.204" height="3.204"/>
</g>
<g>
	<rect x="32.345" y="44.284" fill="#2A2B2C" width="3.204" height="3.204"/>
	<rect x="37.41" y="44.284" fill="#2A2B2C" width="3.204" height="3.204"/>
</g>
<g>
	<rect x="42.576" y="44.284" fill="#2A2B2C" width="3.204" height="3.204"/>
</g>
<rect x="51.678" y="46.168" fill="#2A2B2C" width="3.204" height="3.204"/>
<rect x="56.742" y="46.168" fill="#2A2B2C" width="3.204" height="3.204"/>
<rect x="51.678" y="51.141" fill="#2A2B2C" width="3.204" height="3.204"/>
<rect x="56.742" y="51.141" fill="#2A2B2C" width="3.204" height="3.204"/>
</svg>
