<?xml version="1.0" encoding="utf-8"?>
<!-- Generator: Adobe Illustrator 17.0.0, SVG Export Plug-In . SVG Version: 6.00 Build 0)  -->
<!DOCTYPE svg PUBLIC "-//W3C//DTD SVG 1.1//EN" "http://www.w3.org/Graphics/SVG/1.1/DTD/svg11.dtd">
<svg version="1.1" id="Layer_1" xmlns="http://www.w3.org/2000/svg" xmlns:xlink="http://www.w3.org/1999/xlink" x="0px" y="0px"
	 width="20.437px" height="25.478px" viewBox="0 0 20.437 25.478" enable-background="new 0 0 20.437 25.478" xml:space="preserve">
<polygon fill="none" stroke="rgb(108, 153, 157)" stroke-width="1.2" stroke-miterlimit="10" points="15.028,9.831 19.837,8.14 19.837,14.029 
	15.028,15.686 "/>
<polyline fill="none" stroke="rgb(108, 153, 157)" stroke-width="1.2" stroke-miterlimit="10" points="19.837,1.817 19.837,8.161 15.028,9.817 
	15.028,3.963 19.837,2.271 "/>
<polygon fill="none" stroke="rgb(108, 153, 157)" stroke-width="1.2" stroke-miterlimit="10" points="15.028,15.655 19.837,13.964 
	19.837,19.854 15.028,21.51 "/>
<polygon fill="none" stroke="rgb(108, 153, 157)" stroke-width="1.2" stroke-miterlimit="10" points="10.218,11.508 15.028,9.817 
	15.028,15.707 10.218,17.363 "/>
<polygon fill="none" stroke="rgb(108, 153, 157)" stroke-width="1.2" stroke-miterlimit="10" points="10.218,17.332 15.028,15.641 
	15.028,21.531 10.218,23.187 "/>
<polyline fill="none" stroke="rgb(108, 153, 157)" stroke-width="1.2" stroke-miterlimit="10" points="0.6,17.02 0.6,23.188 5.597,24.911 "/>
<polyline fill="none" stroke="rgb(108, 153, 157)" stroke-width="1.2" stroke-miterlimit="10" points="5.409,24.844 5.409,18.99 0.815,17.391 
	"/>
<polyline fill="none" stroke="rgb(108, 153, 157)" stroke-width="1.2" stroke-miterlimit="10" points="10.218,17.298 10.218,23.188 
	5.268,24.911 "/>
<polyline fill="none" stroke="rgb(108, 153, 157)" stroke-width="1.2" stroke-miterlimit="10" points="5.409,24.844 5.409,18.99 10.218,17.298 
	"/>
<polyline fill="none" stroke="rgb(108, 153, 157)" stroke-width="1.2" stroke-miterlimit="10" points="5.409,9.504 5.409,15.707 10.218,17.363 
	10.218,11.508 5.936,10.002 "/>
<polyline fill="none" stroke="rgb(108, 153, 157)" stroke-width="1.2" stroke-miterlimit="10" points="10.218,1.817 10.218,8.08 15.028,9.737 
	15.028,3.882 10.797,2.426 "/>
<polyline fill="none" stroke="rgb(108, 153, 157)" stroke-width="1.2" stroke-miterlimit="10" points="20.159,2.348 15.188,0.632 9.784,2.348 
	"/>
<polyline fill="none" stroke="rgb(108, 153, 157)" stroke-width="1.2" stroke-miterlimit="10" points="10.422,2.296 15.074,3.911 19.955,2.271 
	"/>
<polyline fill="none" stroke="rgb(108, 153, 157)" stroke-width="1.2" stroke-miterlimit="10" points="15.122,9.842 10.356,8.203 5.081,10.067 
	"/>
<polyline fill="none" stroke="rgb(108, 153, 157)" stroke-width="1.2" stroke-miterlimit="10" points="6.682,10.259 10.241,11.481 
	15.122,9.842 "/>
<line fill="none" stroke="rgb(108, 153, 157)" stroke-width="1.2" stroke-miterlimit="10" x1="5.516" y1="15.723" x2="0.201" y2="17.609"/>
<line fill="none" stroke="rgb(108, 153, 157)" stroke-width="1.2" stroke-miterlimit="10" x1="10.282" y1="17.363" x2="5.516" y2="15.723"/>
<polyline fill="none" stroke="rgb(108, 153, 157)" stroke-width="1.2" stroke-miterlimit="10" points="1.482,17.609 5.401,19.002 
	10.282,17.363 "/>
</svg>
