<?xml version="1.0" encoding="utf-8"?>
<!-- Generator: Adobe Illustrator 17.0.0, SVG Export Plug-In . SVG Version: 6.00 Build 0)  -->
<!DOCTYPE svg PUBLIC "-//W3C//DTD SVG 1.1//EN" "http://www.w3.org/Graphics/SVG/1.1/DTD/svg11.dtd">
<svg version="1.1" id="Layer_1" xmlns="http://www.w3.org/2000/svg" xmlns:xlink="http://www.w3.org/1999/xlink" x="0px" y="0px"
	 width="20px" height="28.228px" viewBox="0 0 20 28.228" enable-background="new 0 0 20 28.228" xml:space="preserve">
<path fill="rgb(170, 149, 5)" d="M0.506,28.228c-0.112,0-0.223-0.037-0.316-0.111c-0.201-0.161-0.249-0.448-0.111-0.666l7.229-11.406H4.462
	c-0.205,0-0.39-0.123-0.468-0.313c-0.078-0.189-0.035-0.407,0.11-0.552L19.136,0.148C19.234,0.05,19.363,0,19.494,0
	c0.111,0,0.222,0.036,0.314,0.109c0.202,0.16,0.251,0.445,0.116,0.664l-6.673,10.778h2.92c0.205,0,0.39,0.123,0.468,0.313
	c0.078,0.189,0.035,0.407-0.11,0.552L0.864,28.08C0.766,28.178,0.637,28.228,0.506,28.228z"/>
</svg>
