<?xml version="1.0" encoding="utf-8"?>
<!-- Generator: Adobe Illustrator 17.0.0, SVG Export Plug-In . SVG Version: 6.00 Build 0)  -->
<!DOCTYPE svg PUBLIC "-//W3C//DTD SVG 1.1//EN" "http://www.w3.org/Graphics/SVG/1.1/DTD/svg11.dtd">
<svg version="1.1" id="Layer_1" xmlns="http://www.w3.org/2000/svg" xmlns:xlink="http://www.w3.org/1999/xlink" x="0px" y="0px"
	 width="100px" height="100px" viewBox="0 0 100 100" enable-background="new 0 0 100 100" xml:space="preserve">
<path fill="#656565" d="M89.426,10.577C82.606,3.757,73.535,0,63.889,0S45.174,3.757,38.354,10.577S27.778,26.465,27.78,36.108
	c-0.002,6.802,1.9,13.295,5.391,18.936l-30.73,30.73c-3.255,3.255-3.255,8.529,0,11.784C4.069,99.186,6.201,100,8.333,100
	s4.264-0.814,5.892-2.441l30.729-30.729c5.641,3.491,12.137,5.393,18.94,5.393c9.646,0,18.712-3.754,25.532-10.574
	c6.82-6.825,10.579-15.894,10.574-25.534C100.005,26.468,96.246,17.396,89.426,10.577z M77.642,49.862
	c-7.315,7.317-20.04,7.332-27.4,0.081c-0.032-0.033-0.041-0.078-0.074-0.111c-0.034-0.034-0.08-0.043-0.114-0.076
	c-3.611-3.662-5.607-8.496-5.607-13.648c0-5.192,2.021-10.075,5.694-13.748c3.67-3.67,8.556-5.694,13.748-5.694
	c5.197,0,10.08,2.024,13.753,5.694c3.673,3.673,5.691,8.556,5.691,13.753C83.333,41.306,81.315,46.189,77.642,49.862z"/>
</svg>
