<?xml version="1.0" encoding="utf-8"?>
<!-- Generator: Adobe Illustrator 17.0.0, SVG Export Plug-In . SVG Version: 6.00 Build 0)  -->
<!DOCTYPE svg PUBLIC "-//W3C//DTD SVG 1.1//EN" "http://www.w3.org/Graphics/SVG/1.1/DTD/svg11.dtd">
<svg version="1.1" id="Layer_1" xmlns="http://www.w3.org/2000/svg" xmlns:xlink="http://www.w3.org/1999/xlink" x="0px" y="0px"
	 width="41.999px" height="42px" viewBox="0 0 41.999 42" enable-background="new 0 0 41.999 42" xml:space="preserve">
<path fill="white" d="M41.923,21.382c0.101-0.244,0.101-0.52,0-0.764c-0.051-0.123-0.124-0.233-0.217-0.326L21.707,0.293
	c-0.391-0.391-1.023-0.391-1.414,0s-0.391,1.023,0,1.414L38.586,20H1c-0.552,0-1,0.448-1,1s0.448,1,1,1h37.586L20.293,40.293
	c-0.391,0.391-0.391,1.023,0,1.414C20.488,41.902,20.744,42,21,42s0.512-0.098,0.707-0.293l19.999-19.999
	C41.799,21.615,41.872,21.505,41.923,21.382z"/>
</svg>
